<?xml version="1.0" encoding="iso-8859-1"?>
<!-- Generator: Adobe Illustrator 27.0.0, SVG Export Plug-In . SVG Version: 6.00 Build 0)  -->
<svg version="1.1" id="Layer_1" xmlns="http://www.w3.org/2000/svg" xmlns:xlink="http://www.w3.org/1999/xlink" x="0px" y="0px"
	 viewBox="0 0 500 500" style="enable-background:new 0 0 500 500;" xml:space="preserve">
<g id="watermark_1_">
	<g>
		<g id="watermark" style="opacity:0.61;">
			<g>
				<g>
					<g>
						<g>
							<polygon style="fill:#FFFFFF;" points="213.765,461.172 208.204,474.017 205.268,474.017 199.726,461.172 202.938,461.172 
								206.846,470.347 210.81,461.172 							"/>
						</g>
						<g>
							<path style="fill:#FFFFFF;" d="M223.507,469.741h-7.469c0.275,1.23,1.321,1.982,2.826,1.982c1.046,0,1.798-0.312,2.477-0.954
								l1.523,1.651c-0.917,1.046-2.294,1.597-4.074,1.597c-3.413,0-5.634-2.147-5.634-5.083c0-2.954,2.257-5.083,5.267-5.083
								c2.899,0,5.138,1.945,5.138,5.12C223.562,469.191,223.526,469.503,223.507,469.741 M216.002,468.071h4.863
								c-0.202-1.248-1.138-2.055-2.422-2.055C217.139,466.016,216.204,466.805,216.002,468.071"/>
						</g>
						<g>
							<path style="fill:#FFFFFF;" d="M224.735,468.934c0-2.973,2.294-5.083,5.505-5.083c2.074,0,3.707,0.899,4.423,2.514
								l-2.22,1.193c-0.532-0.936-1.321-1.358-2.221-1.358c-1.45,0-2.587,1.009-2.587,2.734c0,1.725,1.138,2.734,2.587,2.734
								c0.899,0,1.688-0.404,2.221-1.358l2.22,1.211c-0.716,1.578-2.349,2.495-4.423,2.495
								C227.029,474.017,224.735,471.907,224.735,468.934"/>
						</g>
						<g>
							<path style="fill:#FFFFFF;" d="M242.828,473.393c-0.587,0.422-1.45,0.624-2.331,0.624c-2.33,0-3.688-1.193-3.688-3.542
								v-4.055h-1.523v-2.202h1.523v-2.404h2.863v2.404h2.459v2.202h-2.459v4.019c0,0.844,0.458,1.303,1.229,1.303
								c0.422,0,0.844-0.128,1.156-0.367L242.828,473.393z"/>
						</g>
					</g>
					<g>
						<path style="fill:#FFFFFF;" d="M262.474,463.997v2.643c-0.238-0.018-0.422-0.037-0.642-0.037
							c-1.578,0-2.624,0.862-2.624,2.753v4.661h-2.863v-9.873h2.734v1.303C259.776,464.493,260.951,463.997,262.474,463.997"/>
					</g>
					<g>
						<path style="fill:#FFFFFF;" d="M263.299,472.53l1.009-2.239c1.083,0.789,2.697,1.339,4.239,1.339
							c1.762,0,2.477-0.587,2.477-1.376c0-2.404-7.469-0.752-7.469-5.524c0-2.184,1.762-4,5.413-4c1.615,0,3.267,0.385,4.459,1.138
							l-0.918,2.257c-1.193-0.679-2.422-1.009-3.56-1.009c-1.761,0-2.44,0.66-2.44,1.468c0,2.367,7.468,0.734,7.468,5.45
							c0,2.147-1.78,3.982-5.45,3.982C266.492,474.017,264.437,473.411,263.299,472.53"/>
					</g>
					<g>
						<path style="fill:#FFFFFF;" d="M285.428,469.741h-7.469c0.275,1.23,1.321,1.982,2.826,1.982c1.046,0,1.798-0.312,2.477-0.954
							l1.523,1.651c-0.918,1.046-2.294,1.597-4.074,1.597c-3.413,0-5.634-2.147-5.634-5.083c0-2.954,2.257-5.083,5.267-5.083
							c2.9,0,5.138,1.945,5.138,5.12C285.484,469.191,285.447,469.503,285.428,469.741 M277.923,468.071h4.863
							c-0.202-1.248-1.138-2.055-2.422-2.055C279.061,466.016,278.125,466.805,277.923,468.071"/>
					</g>
					<g>
						<path style="fill:#FFFFFF;" d="M297.007,469.741h-7.469c0.275,1.23,1.321,1.982,2.826,1.982c1.046,0,1.798-0.312,2.477-0.954
							l1.523,1.651c-0.918,1.046-2.294,1.597-4.074,1.597c-3.413,0-5.634-2.147-5.634-5.083c0-2.954,2.257-5.083,5.267-5.083
							c2.899,0,5.138,1.945,5.138,5.12C297.062,469.191,297.025,469.503,297.007,469.741 M289.501,468.071h4.863
							c-0.202-1.248-1.138-2.055-2.422-2.055C290.639,466.016,289.703,466.805,289.501,468.071"/>
					</g>
					<g>
						<polygon style="fill:#FFFFFF;" points="303.208,470.145 301.831,471.503 301.831,474.017 298.969,474.017 298.969,460.401 
							301.831,460.401 301.831,468.108 306.016,464.144 309.429,464.144 305.318,468.328 309.796,474.017 306.327,474.017 						"/>
					</g>
					<g>
						<path style="fill:#FFFFFF;" d="M256.601,475.359L256.601,475.359l-2.86-2.86c-0.435,0.508-0.953,0.943-1.534,1.284
							c-0.092,0.069-0.186,0.136-0.283,0.199l3.027,3.027c0.456,0.456,1.195,0.456,1.65,0
							C257.057,476.554,257.057,475.815,256.601,475.359"/>
					</g>
					<g>
						<path style="fill:#FFFFFF;" d="M249.984,463.244c0.221-0.173,0.495-0.281,0.797-0.281c0.042,0,0.083,0.002,0.124,0.006
							c-0.214-0.156-0.478-0.249-0.764-0.249c-0.395,0-0.744,0.18-0.981,0.458c-0.051,0-0.1,0.006-0.151,0.008
							c0.039-0.077,0.064-0.162,0.064-0.255c0-0.234-0.143-0.434-0.346-0.519c0.087,0.126,0.138,0.279,0.138,0.445
							c0,0.122-0.031,0.237-0.081,0.341c-2.811,0.201-5.03,2.539-5.03,5.4c0,2.993,2.426,5.42,5.42,5.42
							c2.993,0,5.42-2.426,5.42-5.42C254.595,465.879,252.593,463.635,249.984,463.244 M247.983,464.656
							c0.435,0,0.844,0.112,1.199,0.309c0.374-0.245,0.82-0.387,1.299-0.387c0.711,0,1.348,0.312,1.784,0.806
							c-0.435-0.379-1.004-0.61-1.627-0.61c-0.449,0-0.87,0.12-1.234,0.329c-0.079,0.046-0.156,0.096-0.229,0.15
							c-0.065-0.048-0.133-0.093-0.204-0.134c-0.369-0.219-0.8-0.344-1.26-0.344c-0.3,0-0.588,0.054-0.854,0.152
							C247.196,464.754,247.578,464.656,247.983,464.656 M251.772,469.098c0.115,0.305,0.181,0.634,0.181,0.979
							c0,1.534-1.244,2.777-2.778,2.777c-1.534,0-2.777-1.243-2.777-2.777c0-0.345,0.066-0.674,0.181-0.979
							c-0.62-0.382-1.035-1.064-1.035-1.846c0-1.197,0.971-2.168,2.168-2.168c0.565,0,1.078,0.218,1.463,0.572
							c0.386-0.354,0.899-0.572,1.464-0.572c1.197,0,2.168,0.971,2.168,2.168C252.807,468.034,252.392,468.716,251.772,469.098"/>
					</g>
					<g>
						<path style="fill:#FFFFFF;" d="M251.666,467.061c0,0.497-0.404,0.901-0.901,0.901c-0.497,0-0.901-0.404-0.901-0.901
							s0.404-0.901,0.901-0.901c0.101,0,0.197,0.017,0.287,0.047c-0.03,0.062-0.045,0.132-0.045,0.204
							c0,0.273,0.221,0.494,0.494,0.494c0.05,0,0.099-0.008,0.146-0.022C251.66,466.941,251.666,467,251.666,467.061"/>
					</g>
					<g>
						<path style="fill:#FFFFFF;" d="M248.255,467.061c0,0.376-0.305,0.681-0.681,0.681c-0.376,0-0.681-0.305-0.681-0.681
							s0.305-0.681,0.681-0.681c0.076,0,0.149,0.013,0.217,0.035c-0.023,0.047-0.034,0.1-0.034,0.155
							c0,0.206,0.167,0.374,0.374,0.374c0.038,0,0.075-0.006,0.11-0.017C248.25,466.97,248.255,467.015,248.255,467.061"/>
					</g>
					<g>
						<g>
							<g>
								<rect x="242.908" y="467.83" style="fill:#FFFFFF;" width="0.616" height="0.616"/>
							</g>
							<g>
								<rect x="254.827" y="467.83" style="fill:#FFFFFF;" width="0.616" height="0.616"/>
							</g>
							<g>
								<path style="fill:#FFFFFF;" d="M255.205,468.082h-0.14c0-3.248-2.642-5.89-5.89-5.89c-3.248,0-5.89,2.642-5.89,5.89h-0.14
									c0-1.611,0.627-3.125,1.766-4.264c1.139-1.139,2.653-1.766,4.264-1.766c1.611,0,3.125,0.627,4.264,1.766
									C254.578,464.957,255.205,466.471,255.205,468.082"/>
							</g>
						</g>
						<g>
							<rect x="248.868" y="461.814" style="fill:#FFFFFF;" width="0.616" height="0.616"/>
						</g>
						<g>
							<rect x="244.95" y="462.052" style="fill:#FFFFFF;" width="8.45" height="0.14"/>
						</g>
						<g>
							<path style="fill:#FFFFFF;" d="M245.174,462.15c0,0.108-0.088,0.196-0.196,0.196c-0.108,0-0.196-0.088-0.196-0.196
								c0-0.108,0.088-0.196,0.196-0.196C245.086,461.954,245.174,462.042,245.174,462.15"/>
						</g>
						<g>
							<path style="fill:#FFFFFF;" d="M253.596,462.15c0,0.108-0.088,0.196-0.196,0.196c-0.108,0-0.196-0.088-0.196-0.196
								c0-0.108,0.088-0.196,0.196-0.196C253.509,461.954,253.596,462.042,253.596,462.15"/>
						</g>
					</g>
				</g>
				<g>
					<path style="fill:#FFFFFF;" d="M314.356,473.409c0,1.559-2.364,1.559-2.364,0C311.993,471.851,314.356,471.851,314.356,473.409
						z"/>
				</g>
				<g>
					<g>
						<g>
							<path style="fill:#FFFFFF;" d="M161.739,466.549l1.772,6.088l1.855-6.088h2.215l-2.823,8.14h-2.33l-0.837-2.396l-0.722-2.708
								l-0.722,2.708l-0.837,2.396h-2.33l-2.839-8.14h2.231l1.855,6.088l1.756-6.088H161.739z"/>
						</g>
						<g>
							<path style="fill:#FFFFFF;" d="M176.713,466.549l1.772,6.088l1.855-6.088h2.215l-2.823,8.14h-2.33l-0.837-2.396l-0.722-2.708
								l-0.722,2.708l-0.837,2.396h-2.33l-2.839-8.14h2.231l1.855,6.088l1.756-6.088H176.713z"/>
						</g>
						<g>
							<path style="fill:#FFFFFF;" d="M191.687,466.549l1.772,6.088l1.855-6.088h2.215l-2.823,8.14h-2.33l-0.837-2.396l-0.722-2.708
								l-0.722,2.708l-0.837,2.396h-2.33l-2.839-8.14h2.231l1.855,6.088l1.756-6.088H191.687z"/>
						</g>
					</g>
					<g>
						<path style="fill:#FFFFFF;" d="M200.908,473.52c0,1.559-2.364,1.559-2.364,0C198.545,471.962,200.908,471.962,200.908,473.52z
							"/>
					</g>
					<g>
						<path style="fill:#FFFFFF;" d="M322.71,473.409c-0.935,0.919-1.919,1.28-3.117,1.28c-2.346,0-4.3-1.411-4.3-4.282
							s1.953-4.284,4.3-4.284c1.149,0,2.035,0.329,2.921,1.199l-1.264,1.329c-0.476-0.428-1.066-0.64-1.623-0.64
							c-1.346,0-2.33,0.985-2.33,2.396c0,1.542,1.05,2.362,2.297,2.362c0.64,0,1.28-0.18,1.772-0.672L322.71,473.409z"/>
					</g>
					<g>
						<path style="fill:#FFFFFF;" d="M331.805,470.472c0,2.33-1.591,4.217-4.217,4.217c-2.626,0-4.201-1.887-4.201-4.217
							c0-2.314,1.609-4.217,4.185-4.217C330.149,466.255,331.805,468.158,331.805,470.472z M325.389,470.472
							c0,1.231,0.739,2.38,2.199,2.38c1.46,0,2.199-1.149,2.199-2.38c0-1.215-0.854-2.396-2.199-2.396
							C326.144,468.077,325.389,469.258,325.389,470.472z"/>
					</g>
					<g>
						<path style="fill:#FFFFFF;" d="M338.572,474.689v-4.332c0-1.068-0.559-2.035-1.658-2.035c-1.082,0-1.722,0.967-1.722,2.035
							v4.332h-2.003v-8.107h1.855l0.148,0.985c0.426-0.82,1.362-1.116,2.133-1.116c0.969,0,1.937,0.394,2.396,1.51
							c0.723-1.149,1.658-1.478,2.708-1.478c2.297,0,3.43,1.412,3.43,3.84v4.365h-2.003v-4.365c0-1.066-0.442-1.97-1.526-1.97
							c-1.082,0-1.756,0.935-1.756,2.003v4.332H338.572z"/>
					</g>
				</g>
			</g>
		</g>
		<g style="opacity:0.61;">
			<g>
				<g>
					<path style="fill:#FFFFFF;" d="M345.988,431.299c-0.006-1.224-0.959-2.121-2.189-2.14c-0.924-0.014-0.832,0.12-0.834-0.867
						c-0.003-1.097-0.007-2.194,0.003-3.292c0.003-0.379-0.112-0.691-0.362-0.976c-2.342-2.668-4.678-5.342-7.019-8.011
						c-0.12-0.137-0.275-0.244-0.414-0.366c-6.214,0-12.427,0-18.641,0c-0.794,0.293-1.14,0.868-1.138,1.709
						c0.01,3.748,0.004,7.496,0.004,11.243c0,0.556-0.003,0.589-0.55,0.551c-1.497-0.102-2.516,0.986-2.497,2.492
						c0.044,3.476,0.013,6.953,0.014,10.429c0.001,1.58,0.867,2.443,2.45,2.449c0.582,0.002,0.582,0.002,0.582,0.6
						c0,2.219-0.001,4.438,0.001,6.657c0.001,1.192,0.58,1.771,1.768,1.771c8.013,0.001,16.027,0.001,24.04,0
						c1.168,0,1.755-0.583,1.757-1.745c0.002-2.256,0-4.512,0.001-6.768c0-0.512,0.002-0.511,0.52-0.515
						c0.271-0.002,0.541,0.008,0.809-0.058c0.996-0.246,1.69-1.044,1.694-2.069C346.003,438.696,346.005,434.997,345.988,431.299z
						 M317.537,417.162c5.337,0,10.674,0,16.01,0c0.548,0,0.554,0.007,0.554,0.561c0.001,2.243-0.001,4.486,0.001,6.73
						c0.001,0.811,0.249,1.059,1.06,1.059c1.91,0.001,3.821,0,5.731,0.001c0.458,0,0.479,0.021,0.481,0.483
						c0.003,0.887,0.002,1.775,0,2.662c-0.001,0.477-0.024,0.498-0.504,0.499c-3.895,0.001-7.79,0-11.684,0
						c-3.882,0-7.765,0-11.647,0c-0.55,0-0.552-0.001-0.552-0.561c-0.001-3.624-0.001-7.247,0-10.871
						C316.987,417.166,316.991,417.162,317.537,417.162z M340.822,451.579c-3.883,0.001-7.766,0-11.65,0c-3.871,0-7.742,0-11.613,0
						c-0.572,0-0.574-0.002-0.574-0.579c-0.001-1.997-0.001-3.994,0.001-5.991c0-0.464,0.023-0.486,0.478-0.487
						c7.803-0.001,15.607-0.001,23.41,0c0.478,0,0.499,0.02,0.499,0.503c0.002,1.997,0.001,3.994,0,5.991
						C341.375,451.574,341.37,451.579,340.822,451.579z"/>
				</g>
				<g>
					<g>
						<rect x="327.418" y="417.053" style="fill:#FFFFFF;" width="1.757" height="1.054"/>
					</g>
					<g>
						<rect x="325.662" y="418.107" style="fill:#FFFFFF;" width="1.757" height="1.054"/>
					</g>
					<g>
						<rect x="327.418" y="419.161" style="fill:#FFFFFF;" width="1.757" height="1.054"/>
					</g>
					<g>
						<rect x="325.662" y="420.215" style="fill:#FFFFFF;" width="1.757" height="1.054"/>
					</g>
					<g>
						<rect x="327.418" y="421.269" style="fill:#FFFFFF;" width="1.757" height="1.054"/>
					</g>
					<g>
						<rect x="325.662" y="422.323" style="fill:#FFFFFF;" width="1.757" height="1.054"/>
					</g>
					<g>
						<rect x="327.418" y="423.378" style="fill:#FFFFFF;" width="1.757" height="1.054"/>
					</g>
					<g>
						<rect x="325.662" y="424.432" style="fill:#FFFFFF;" width="1.757" height="1.054"/>
					</g>
					<g>
						<rect x="327.418" y="425.486" style="fill:#FFFFFF;" width="1.757" height="1.054"/>
					</g>
					<g>
						<rect x="325.662" y="426.54" style="fill:#FFFFFF;" width="1.757" height="1.054"/>
					</g>
					<g>
						<rect x="327.418" y="427.594" style="fill:#FFFFFF;" width="1.757" height="1.054"/>
					</g>
					<g>
						<rect x="325.662" y="428.648" style="fill:#FFFFFF;" width="1.757" height="1.054"/>
					</g>
				</g>
			</g>
			<g>
				<path style="fill:#FFFFFF;" d="M187.637,431.299c-0.006-1.224-0.959-2.121-2.189-2.14c-0.924-0.014-0.832,0.12-0.834-0.867
					c-0.003-1.097-0.007-2.194,0.003-3.292c0.003-0.379-0.112-0.691-0.362-0.976c-2.342-2.668-4.678-5.342-7.019-8.011
					c-0.12-0.137-0.275-0.244-0.414-0.366c-6.214,0-12.427,0-18.641,0c-0.794,0.293-1.14,0.868-1.138,1.709
					c0.01,3.748,0.004,7.496,0.004,11.243c0,0.556-0.003,0.589-0.55,0.551c-1.497-0.102-2.516,0.986-2.497,2.492
					c0.044,3.476,0.013,6.953,0.014,10.429c0.001,1.58,0.867,2.443,2.45,2.449c0.582,0.002,0.582,0.002,0.582,0.6
					c0,2.219-0.001,4.438,0.001,6.657c0.001,1.192,0.58,1.771,1.768,1.771c8.013,0.001,16.027,0.001,24.04,0
					c1.168,0,1.755-0.583,1.757-1.745c0.002-2.256,0-4.512,0.001-6.768c0-0.512,0.002-0.511,0.52-0.515
					c0.271-0.002,0.541,0.008,0.809-0.058c0.996-0.246,1.69-1.044,1.694-2.069C187.652,438.696,187.655,434.997,187.637,431.299z
					 M159.187,417.162c5.337,0,10.674,0,16.01,0c0.548,0,0.554,0.007,0.554,0.561c0.001,2.243-0.001,4.486,0.001,6.73
					c0.001,0.811,0.249,1.059,1.06,1.059c1.91,0.001,3.821,0,5.731,0.001c0.458,0,0.479,0.021,0.481,0.483
					c0.003,0.887,0.002,1.775,0,2.662c-0.001,0.477-0.024,0.498-0.504,0.499c-3.895,0.001-7.79,0-11.684,0
					c-3.882,0-7.765,0-11.647,0c-0.55,0-0.552-0.001-0.552-0.561c-0.001-3.624-0.001-7.247,0-10.871
					C158.636,417.166,158.64,417.162,159.187,417.162z M182.472,451.579c-3.883,0.001-7.766,0-11.65,0c-3.871,0-7.742,0-11.613,0
					c-0.572,0-0.574-0.002-0.574-0.579c-0.001-1.997-0.001-3.994,0.001-5.991c0-0.464,0.023-0.486,0.478-0.487
					c7.803-0.001,15.607-0.001,23.41,0c0.478,0,0.499,0.02,0.499,0.503c0.002,1.997,0.001,3.994,0,5.991
					C183.024,451.574,183.019,451.579,182.472,451.579z"/>
			</g>
			<g>
				<path style="fill:#FFFFFF;" d="M159.779,440.669v-7.897h2.779c0.375,0,0.726,0.061,1.053,0.182
					c0.327,0.121,0.612,0.292,0.855,0.513c0.242,0.221,0.434,0.483,0.573,0.789c0.14,0.305,0.21,0.642,0.21,1.009
					c0,0.375-0.07,0.715-0.21,1.02c-0.14,0.305-0.331,0.568-0.573,0.789c-0.243,0.221-0.528,0.392-0.855,0.513
					c-0.327,0.121-0.678,0.182-1.053,0.182h-1.29v2.901H159.779z M162.58,436.356c0.39,0,0.684-0.111,0.882-0.331
					c0.199-0.22,0.298-0.474,0.298-0.761c0-0.14-0.024-0.276-0.072-0.408c-0.048-0.132-0.121-0.248-0.221-0.347
					c-0.099-0.099-0.223-0.178-0.37-0.237c-0.147-0.059-0.32-0.089-0.518-0.089h-1.312v2.173H162.58z"/>
				<path style="fill:#FFFFFF;" d="M166.308,432.771h1.731l3.177,5.294h0.088l-0.088-1.522v-3.772h1.478v7.897h-1.566l-3.353-5.592
					h-0.088l0.088,1.522v4.07h-1.467V432.771z"/>
				<path style="fill:#FFFFFF;" d="M177.922,436.334h3.872c0.022,0.089,0.04,0.195,0.055,0.32c0.014,0.125,0.022,0.25,0.022,0.375
					c0,0.507-0.077,0.985-0.231,1.434c-0.154,0.449-0.397,0.849-0.728,1.202c-0.353,0.375-0.776,0.666-1.268,0.871
					c-0.493,0.206-1.055,0.309-1.688,0.309c-0.574,0-1.114-0.103-1.622-0.309c-0.507-0.206-0.948-0.492-1.323-0.86
					c-0.375-0.367-0.673-0.803-0.894-1.307c-0.221-0.504-0.331-1.053-0.331-1.649c0-0.595,0.11-1.145,0.331-1.649
					c0.221-0.504,0.518-0.939,0.894-1.307c0.375-0.367,0.816-0.654,1.323-0.86c0.507-0.206,1.048-0.309,1.622-0.309
					c0.64,0,1.211,0.11,1.715,0.331c0.504,0.221,0.935,0.526,1.296,0.915l-1.025,1.004c-0.258-0.272-0.544-0.48-0.861-0.623
					c-0.316-0.143-0.695-0.215-1.136-0.215c-0.361,0-0.703,0.065-1.026,0.193c-0.324,0.129-0.607,0.311-0.85,0.546
					c-0.242,0.235-0.436,0.52-0.579,0.855c-0.143,0.335-0.215,0.708-0.215,1.119c0,0.412,0.072,0.785,0.215,1.12
					c0.143,0.335,0.338,0.62,0.584,0.855c0.246,0.235,0.531,0.418,0.855,0.546c0.323,0.129,0.669,0.193,1.037,0.193
					c0.419,0,0.773-0.061,1.064-0.182c0.29-0.121,0.538-0.278,0.744-0.469c0.148-0.132,0.275-0.3,0.381-0.502
					c0.106-0.202,0.189-0.428,0.248-0.678h-2.482V436.334z"/>
			</g>
			<g>
				<path style="fill:#FFFFFF;" d="M224.019,431.299c-0.006-1.224-0.959-2.121-2.189-2.14c-0.924-0.014-0.832,0.12-0.834-0.867
					c-0.003-1.097-0.007-2.194,0.003-3.292c0.003-0.379-0.112-0.691-0.362-0.976c-2.342-2.668-4.678-5.342-7.019-8.011
					c-0.12-0.137-0.275-0.244-0.414-0.366c-6.214,0-12.427,0-18.641,0c-0.794,0.293-1.14,0.868-1.138,1.709
					c0.01,3.748,0.004,7.496,0.004,11.243c0,0.556-0.003,0.589-0.55,0.551c-1.497-0.102-2.516,0.986-2.497,2.492
					c0.044,3.476,0.013,6.953,0.014,10.429c0.001,1.58,0.867,2.443,2.45,2.449c0.582,0.002,0.582,0.002,0.582,0.6
					c0,2.219-0.001,4.438,0.001,6.657c0.001,1.192,0.58,1.771,1.768,1.771c8.013,0.001,16.027,0.001,24.04,0
					c1.168,0,1.755-0.583,1.757-1.745c0.002-2.256,0-4.512,0.001-6.768c0-0.512,0.002-0.511,0.52-0.515
					c0.271-0.002,0.541,0.008,0.809-0.058c0.997-0.246,1.69-1.044,1.694-2.069C224.034,438.696,224.036,434.997,224.019,431.299z
					 M195.568,417.162c5.337,0,10.674,0,16.01,0c0.548,0,0.554,0.007,0.554,0.561c0.001,2.243-0.001,4.486,0.001,6.73
					c0.001,0.811,0.249,1.059,1.06,1.059c1.91,0.001,3.821,0,5.731,0.001c0.458,0,0.479,0.021,0.481,0.483
					c0.003,0.887,0.002,1.775,0,2.662c-0.001,0.477-0.024,0.498-0.504,0.499c-3.895,0.001-7.79,0-11.684,0
					c-3.882,0-7.765,0-11.647,0c-0.55,0-0.552-0.001-0.552-0.561c-0.001-3.624-0.001-7.247,0-10.871
					C195.018,417.166,195.022,417.162,195.568,417.162z M218.854,451.579c-3.883,0.001-7.766,0-11.65,0c-3.871,0-7.742,0-11.613,0
					c-0.572,0-0.574-0.002-0.574-0.579c-0.001-1.997-0.001-3.994,0.001-5.991c0-0.464,0.023-0.486,0.478-0.487
					c7.803-0.001,15.607-0.001,23.41,0c0.478,0,0.499,0.02,0.499,0.503c0.002,1.997,0.001,3.994,0,5.991
					C219.406,451.574,219.401,451.579,218.854,451.579z"/>
			</g>
			<g>
				<path style="fill:#FFFFFF;" d="M205.111,432.771h1.699l2.967,7.897h-1.644l-0.651-1.886h-3.044l-0.651,1.886h-1.643
					L205.111,432.771z M206.997,437.415l-0.706-1.974l-0.287-0.96h-0.088l-0.287,0.96l-0.706,1.974H206.997z"/>
				<path style="fill:#FFFFFF;" d="M211.331,434.536c-0.125,0-0.245-0.024-0.359-0.072c-0.114-0.048-0.213-0.114-0.298-0.199
					c-0.084-0.084-0.151-0.182-0.198-0.292c-0.048-0.11-0.072-0.232-0.072-0.364s0.024-0.254,0.072-0.364
					c0.048-0.11,0.114-0.208,0.198-0.292c0.084-0.084,0.184-0.151,0.298-0.198c0.114-0.048,0.233-0.072,0.359-0.072
					c0.257,0,0.478,0.09,0.662,0.27c0.184,0.181,0.276,0.399,0.276,0.656s-0.092,0.476-0.276,0.656
					C211.809,434.446,211.589,434.536,211.331,434.536z M210.615,440.669v-5.404h1.445v5.404H210.615z"/>
			</g>
			<g>
				<path style="fill:#FFFFFF;" d="M261.044,431.299c-0.006-1.224-0.959-2.121-2.189-2.14c-0.924-0.014-0.832,0.12-0.834-0.867
					c-0.003-1.097-0.007-2.194,0.003-3.292c0.003-0.379-0.112-0.691-0.362-0.976c-2.342-2.668-4.678-5.342-7.019-8.011
					c-0.12-0.137-0.275-0.244-0.414-0.366c-6.214,0-12.427,0-18.641,0c-0.794,0.293-1.14,0.868-1.138,1.709
					c0.01,3.748,0.004,7.496,0.004,11.243c0,0.556-0.003,0.589-0.55,0.551c-1.497-0.102-2.516,0.986-2.497,2.492
					c0.044,3.476,0.013,6.953,0.014,10.429c0.001,1.58,0.867,2.443,2.45,2.449c0.582,0.002,0.582,0.002,0.582,0.6
					c0,2.219-0.001,4.438,0.001,6.657c0.001,1.192,0.58,1.771,1.768,1.771c8.013,0.001,16.027,0.001,24.04,0
					c1.168,0,1.755-0.583,1.757-1.745c0.002-2.256,0-4.512,0.001-6.768c0-0.512,0.002-0.511,0.52-0.515
					c0.271-0.002,0.541,0.008,0.809-0.058c0.996-0.246,1.69-1.044,1.694-2.069C261.059,438.696,261.061,434.997,261.044,431.299z
					 M232.593,417.162c5.337,0,10.674,0,16.01,0c0.548,0,0.554,0.007,0.554,0.561c0.001,2.243-0.001,4.486,0.001,6.73
					c0.001,0.811,0.249,1.059,1.06,1.059c1.91,0.001,3.821,0,5.731,0.001c0.458,0,0.479,0.021,0.481,0.483
					c0.003,0.887,0.002,1.775,0,2.662c-0.001,0.477-0.024,0.498-0.504,0.499c-3.895,0.001-7.79,0-11.684,0
					c-3.882,0-7.765,0-11.647,0c-0.55,0-0.552-0.001-0.552-0.561c-0.001-3.624-0.001-7.247,0-10.871
					C232.042,417.166,232.047,417.162,232.593,417.162z M255.878,451.579c-3.883,0.001-7.766,0-11.65,0c-3.871,0-7.742,0-11.613,0
					c-0.572,0-0.574-0.002-0.574-0.579c-0.001-1.997-0.001-3.994,0.001-5.991c0-0.464,0.023-0.486,0.478-0.487
					c7.803-0.001,15.607-0.001,23.41,0c0.478,0,0.499,0.02,0.499,0.503c0.002,1.997,0.001,3.994,0,5.991
					C256.431,451.574,256.426,451.579,255.878,451.579z"/>
			</g>
			<g>
				<path style="fill:#FFFFFF;" d="M236.361,440.845c-0.338,0-0.662-0.048-0.971-0.143c-0.309-0.095-0.592-0.239-0.849-0.43
					c-0.257-0.191-0.481-0.425-0.673-0.7c-0.191-0.276-0.342-0.597-0.452-0.965l1.401-0.551c0.103,0.397,0.283,0.726,0.54,0.987
					c0.257,0.261,0.596,0.392,1.015,0.392c0.154,0,0.303-0.02,0.447-0.061c0.143-0.04,0.272-0.099,0.386-0.176
					s0.204-0.175,0.27-0.292c0.066-0.118,0.099-0.254,0.099-0.408c0-0.147-0.026-0.279-0.077-0.397
					c-0.051-0.117-0.138-0.227-0.259-0.331c-0.121-0.103-0.28-0.202-0.475-0.298c-0.195-0.095-0.435-0.195-0.722-0.298l-0.485-0.176
					c-0.213-0.073-0.429-0.173-0.645-0.298c-0.217-0.125-0.413-0.276-0.59-0.452c-0.177-0.176-0.322-0.384-0.436-0.623
					c-0.114-0.239-0.171-0.509-0.171-0.81c0-0.309,0.06-0.597,0.182-0.866c0.121-0.268,0.294-0.503,0.518-0.706
					c0.224-0.202,0.492-0.36,0.805-0.474s0.66-0.171,1.042-0.171c0.397,0,0.74,0.053,1.031,0.16
					c0.291,0.107,0.537,0.243,0.739,0.408c0.202,0.165,0.366,0.348,0.491,0.546c0.125,0.199,0.217,0.386,0.276,0.563l-1.312,0.551
					c-0.074-0.221-0.208-0.419-0.402-0.596c-0.195-0.176-0.462-0.265-0.8-0.265c-0.324,0-0.592,0.075-0.805,0.226
					c-0.213,0.151-0.32,0.348-0.32,0.59c0,0.235,0.103,0.436,0.309,0.601c0.206,0.165,0.533,0.325,0.982,0.48l0.497,0.165
					c0.316,0.111,0.605,0.237,0.866,0.381c0.261,0.143,0.485,0.314,0.673,0.513c0.187,0.199,0.331,0.425,0.43,0.678
					c0.1,0.254,0.149,0.546,0.149,0.877c0,0.412-0.083,0.767-0.248,1.064c-0.165,0.298-0.377,0.542-0.634,0.734
					c-0.258,0.191-0.548,0.335-0.872,0.43C236.986,440.797,236.67,440.845,236.361,440.845z"/>
				<path style="fill:#FFFFFF;" d="M239.516,432.771h1.61l1.633,4.754l0.287,1.015h0.088l0.309-1.015l1.699-4.754h1.61l-2.879,7.897
					h-1.566L239.516,432.771z"/>
				<path style="fill:#FFFFFF;" d="M251.097,436.334h3.871c0.022,0.089,0.04,0.195,0.055,0.32c0.015,0.125,0.023,0.25,0.023,0.375
					c0,0.507-0.078,0.985-0.232,1.434c-0.154,0.449-0.397,0.849-0.728,1.202c-0.353,0.375-0.775,0.666-1.268,0.871
					c-0.493,0.206-1.055,0.309-1.688,0.309c-0.574,0-1.114-0.103-1.621-0.309c-0.507-0.206-0.949-0.492-1.324-0.86
					c-0.375-0.367-0.673-0.803-0.894-1.307c-0.22-0.504-0.331-1.053-0.331-1.649c0-0.595,0.11-1.145,0.331-1.649
					c0.221-0.504,0.518-0.939,0.894-1.307c0.375-0.367,0.816-0.654,1.324-0.86c0.507-0.206,1.047-0.309,1.621-0.309
					c0.64,0,1.211,0.11,1.715,0.331c0.504,0.221,0.936,0.526,1.296,0.915l-1.026,1.004c-0.257-0.272-0.544-0.48-0.861-0.623
					c-0.316-0.143-0.694-0.215-1.136-0.215c-0.36,0-0.702,0.065-1.026,0.193c-0.323,0.129-0.607,0.311-0.849,0.546
					c-0.243,0.235-0.436,0.52-0.579,0.855c-0.143,0.335-0.215,0.708-0.215,1.119c0,0.412,0.072,0.785,0.215,1.12
					c0.143,0.335,0.338,0.62,0.585,0.855c0.246,0.235,0.531,0.418,0.854,0.546c0.324,0.129,0.669,0.193,1.037,0.193
					c0.419,0,0.774-0.061,1.064-0.182c0.29-0.121,0.539-0.278,0.745-0.469c0.147-0.132,0.274-0.3,0.38-0.502
					c0.107-0.202,0.189-0.428,0.248-0.678h-2.482V436.334z"/>
			</g>
			<g>
				<path style="fill:#FFFFFF;" d="M297.3,431.299c-0.006-1.224-0.959-2.121-2.189-2.14c-0.924-0.014-0.832,0.12-0.834-0.867
					c-0.003-1.097-0.007-2.194,0.003-3.292c0.003-0.379-0.112-0.691-0.362-0.976c-2.342-2.668-4.678-5.342-7.019-8.011
					c-0.12-0.137-0.275-0.244-0.414-0.366c-6.214,0-12.427,0-18.641,0c-0.794,0.293-1.14,0.868-1.138,1.709
					c0.01,3.748,0.004,7.496,0.004,11.243c0,0.556-0.003,0.589-0.55,0.551c-1.497-0.102-2.516,0.986-2.497,2.492
					c0.044,3.476,0.013,6.953,0.014,10.429c0.001,1.58,0.867,2.443,2.45,2.449c0.582,0.002,0.582,0.002,0.582,0.6
					c0,2.219-0.001,4.438,0.001,6.657c0.001,1.192,0.58,1.771,1.768,1.771c8.013,0.001,16.027,0.001,24.04,0
					c1.168,0,1.755-0.583,1.757-1.745c0.002-2.256,0-4.512,0.001-6.768c0-0.512,0.002-0.511,0.52-0.515
					c0.271-0.002,0.541,0.008,0.809-0.058c0.996-0.246,1.69-1.044,1.694-2.069C297.315,438.696,297.318,434.997,297.3,431.299z
					 M268.85,417.162c5.337,0,10.674,0,16.01,0c0.548,0,0.554,0.007,0.554,0.561c0.001,2.243-0.001,4.486,0.001,6.73
					c0.001,0.811,0.249,1.059,1.06,1.059c1.91,0.001,3.821,0,5.731,0.001c0.458,0,0.479,0.021,0.481,0.483
					c0.003,0.887,0.002,1.775,0,2.662c-0.001,0.477-0.024,0.498-0.504,0.499c-3.895,0.001-7.79,0-11.684,0
					c-3.882,0-7.765,0-11.647,0c-0.55,0-0.552-0.001-0.552-0.561c-0.001-3.624-0.001-7.247,0-10.871
					C268.299,417.166,268.303,417.162,268.85,417.162z M292.135,451.579c-3.883,0.001-7.766,0-11.65,0c-3.871,0-7.742,0-11.613,0
					c-0.572,0-0.574-0.002-0.574-0.579c-0.001-1.997-0.001-3.994,0.001-5.991c0-0.464,0.023-0.486,0.478-0.487
					c7.803-0.001,15.607-0.001,23.41,0c0.478,0,0.499,0.02,0.499,0.503c0.001,1.997,0.001,3.994,0,5.991
					C292.687,451.574,292.682,451.579,292.135,451.579z"/>
			</g>
			<g>
				<path style="fill:#FFFFFF;" d="M272.966,434.183v1.831h3.165v1.412h-3.165v1.831h3.518v1.412h-5.007v-7.897h5.007v1.412H272.966
					z"/>
				<path style="fill:#FFFFFF;" d="M277.852,440.669v-7.897h2.779c0.375,0,0.726,0.061,1.053,0.182
					c0.327,0.121,0.612,0.292,0.855,0.513c0.243,0.221,0.434,0.483,0.574,0.789c0.14,0.305,0.209,0.642,0.209,1.009
					c0,0.375-0.07,0.715-0.209,1.02c-0.14,0.305-0.331,0.568-0.574,0.789c-0.243,0.221-0.528,0.392-0.855,0.513
					c-0.327,0.121-0.678,0.182-1.053,0.182h-1.29v2.901H277.852z M280.653,436.356c0.389,0,0.684-0.111,0.882-0.331
					c0.199-0.22,0.298-0.474,0.298-0.761c0-0.14-0.024-0.276-0.072-0.408c-0.048-0.132-0.121-0.248-0.221-0.347
					c-0.099-0.099-0.222-0.178-0.37-0.237c-0.147-0.059-0.32-0.089-0.518-0.089h-1.312v2.173H280.653z"/>
				<path style="fill:#FFFFFF;" d="M286.797,440.845c-0.338,0-0.662-0.048-0.971-0.143c-0.309-0.095-0.592-0.239-0.849-0.43
					c-0.257-0.191-0.482-0.425-0.673-0.7c-0.191-0.276-0.342-0.597-0.452-0.965l1.401-0.551c0.103,0.397,0.283,0.726,0.541,0.987
					c0.257,0.261,0.595,0.392,1.015,0.392c0.154,0,0.303-0.02,0.447-0.061c0.143-0.04,0.272-0.099,0.386-0.176
					c0.114-0.077,0.204-0.175,0.27-0.292c0.066-0.118,0.1-0.254,0.1-0.408c0-0.147-0.026-0.279-0.077-0.397
					c-0.051-0.117-0.138-0.227-0.259-0.331c-0.121-0.103-0.279-0.202-0.474-0.298c-0.195-0.095-0.436-0.195-0.723-0.298
					l-0.485-0.176c-0.213-0.073-0.428-0.173-0.645-0.298c-0.217-0.125-0.414-0.276-0.59-0.452c-0.176-0.176-0.322-0.384-0.436-0.623
					c-0.114-0.239-0.171-0.509-0.171-0.81c0-0.309,0.061-0.597,0.182-0.866c0.121-0.268,0.294-0.503,0.518-0.706
					c0.224-0.202,0.493-0.36,0.805-0.474c0.312-0.114,0.66-0.171,1.042-0.171c0.397,0,0.741,0.053,1.031,0.16
					c0.29,0.107,0.537,0.243,0.739,0.408c0.202,0.165,0.365,0.348,0.491,0.546c0.125,0.199,0.217,0.386,0.276,0.563l-1.312,0.551
					c-0.074-0.221-0.208-0.419-0.403-0.596c-0.195-0.176-0.462-0.265-0.799-0.265c-0.324,0-0.592,0.075-0.805,0.226
					c-0.213,0.151-0.32,0.348-0.32,0.59c0,0.235,0.103,0.436,0.309,0.601c0.206,0.165,0.533,0.325,0.982,0.48l0.496,0.165
					c0.316,0.111,0.605,0.237,0.866,0.381c0.261,0.143,0.485,0.314,0.673,0.513c0.187,0.199,0.331,0.425,0.43,0.678
					c0.099,0.254,0.149,0.546,0.149,0.877c0,0.412-0.083,0.767-0.248,1.064c-0.165,0.298-0.377,0.542-0.634,0.734
					c-0.258,0.191-0.548,0.335-0.872,0.43C287.422,440.797,287.105,440.845,286.797,440.845z"/>
			</g>
			<g>
				<path style="fill:#FFFFFF;" d="M321.394,439.168l4.004-4.985h-3.827v-1.412h5.559v1.5l-3.96,4.985h4.004v1.412h-5.779V439.168z"
					/>
				<path style="fill:#FFFFFF;" d="M328.409,432.771h1.489v7.897h-1.489V432.771z"/>
				<path style="fill:#FFFFFF;" d="M331.486,440.669v-7.897h2.779c0.375,0,0.726,0.061,1.053,0.182
					c0.327,0.121,0.612,0.292,0.855,0.513s0.434,0.483,0.574,0.789c0.14,0.305,0.209,0.642,0.209,1.009
					c0,0.375-0.07,0.715-0.209,1.02c-0.14,0.305-0.331,0.568-0.574,0.789c-0.243,0.221-0.528,0.392-0.855,0.513
					c-0.327,0.121-0.678,0.182-1.053,0.182h-1.29v2.901H331.486z M334.288,436.356c0.389,0,0.684-0.111,0.882-0.331
					c0.199-0.22,0.298-0.474,0.298-0.761c0-0.14-0.024-0.276-0.072-0.408c-0.048-0.132-0.121-0.248-0.221-0.347
					c-0.099-0.099-0.222-0.178-0.37-0.237c-0.147-0.059-0.32-0.089-0.518-0.089h-1.312v2.173H334.288z"/>
			</g>
		</g>
		<g style="opacity:0.61;">
			<path style="fill:#FFFFFF;" d="M300.133,433.27h9.067v2.242h-9.067V433.27z M300.133,437.136h9.067v2.243h-9.067V437.136z"/>
		</g>
	</g>
	<g style="opacity:0.61;">
		<path style="fill:#FFFFFF;" d="M156.756,478.878h1.607c1.263,0,2.114,0.812,2.114,1.974c0,1.161-0.851,1.973-2.114,1.973h-1.607
			V478.878z M158.34,482.464c1.049,0,1.725-0.665,1.725-1.612c0-0.947-0.677-1.613-1.725-1.613h-1.167v3.225H158.34z"/>
		<path style="fill:#FFFFFF;" d="M165.139,480.851c0-1.15,0.879-2.007,2.075-2.007c1.184,0,2.069,0.851,2.069,2.007
			c0,1.156-0.885,2.007-2.069,2.007C166.019,482.858,165.139,482.002,165.139,480.851z M168.866,480.851
			c0-0.942-0.705-1.635-1.652-1.635c-0.953,0-1.663,0.693-1.663,1.635c0,0.941,0.71,1.635,1.663,1.635
			C168.162,482.486,168.866,481.793,168.866,480.851z"/>
		<path style="fill:#FFFFFF;" d="M179.596,478.878l-1.331,3.947h-0.44l-1.156-3.366l-1.161,3.366h-0.434l-1.331-3.947h0.429
			l1.139,3.394l1.178-3.394h0.389l1.161,3.411l1.156-3.411H179.596z"/>
		<path style="fill:#FFFFFF;" d="M187.731,478.878v3.947h-0.344l-2.537-3.202v3.202h-0.417v-3.947h0.344l2.543,3.203v-3.203H187.731
			z"/>
		<path style="fill:#FFFFFF;" d="M193.093,478.878h0.417v3.586h2.21v0.361h-2.627V478.878z"/>
		<path style="fill:#FFFFFF;" d="M200.061,480.851c0-1.15,0.879-2.007,2.075-2.007c1.184,0,2.069,0.851,2.069,2.007
			c0,1.156-0.885,2.007-2.069,2.007C200.941,482.858,200.061,482.002,200.061,480.851z M203.788,480.851
			c0-0.942-0.705-1.635-1.652-1.635c-0.953,0-1.663,0.693-1.663,1.635c0,0.941,0.71,1.635,1.663,1.635
			C203.083,482.486,203.788,481.793,203.788,480.851z"/>
		<path style="fill:#FFFFFF;" d="M211.636,481.77h-2.199l-0.474,1.054h-0.434l1.804-3.947h0.412l1.804,3.947h-0.44L211.636,481.77z
			 M211.484,481.432l-0.947-2.12l-0.947,2.12H211.484z"/>
		<path style="fill:#FFFFFF;" d="M217.28,478.878h1.607c1.263,0,2.114,0.812,2.114,1.974c0,1.161-0.851,1.973-2.114,1.973h-1.607
			V478.878z M218.864,482.464c1.049,0,1.725-0.665,1.725-1.612c0-0.947-0.677-1.613-1.725-1.613h-1.167v3.225H218.864z"/>
		<path style="fill:#FFFFFF;" d="M234.041,481.77h-2.199l-0.474,1.054h-0.434l1.804-3.947h0.412l1.804,3.947h-0.44L234.041,481.77z
			 M233.889,481.432l-0.947-2.12l-0.947,2.12H233.889z"/>
		<path style="fill:#FFFFFF;" d="M239.685,478.878h0.417v3.586h2.21v0.361h-2.627V478.878z"/>
		<path style="fill:#FFFFFF;" d="M247.082,478.878h0.417v3.586h2.21v0.361h-2.627V478.878z"/>
		<path style="fill:#FFFFFF;" d="M260.449,479.239v1.551h2.041v0.361h-2.041v1.675h-0.417v-3.947h2.706v0.361H260.449z"/>
		<path style="fill:#FFFFFF;" d="M267.678,478.878h0.417v3.947h-0.417V478.878z"/>
		<path style="fill:#FFFFFF;" d="M273.456,478.878h0.417v3.586h2.21v0.361h-2.627V478.878z"/>
		<path style="fill:#FFFFFF;" d="M283.644,482.464v0.361h-2.791v-3.947h2.706v0.361h-2.289v1.404h2.041v0.355h-2.041v1.466H283.644z
			"/>
		<path style="fill:#FFFFFF;" d="M294.672,479.239v1.551h2.041v0.361h-2.041v1.675h-0.417v-3.947h2.706v0.361H294.672z"/>
		<path style="fill:#FFFFFF;" d="M301.5,480.851c0-1.15,0.879-2.007,2.075-2.007c1.184,0,2.069,0.851,2.069,2.007
			c0,1.156-0.885,2.007-2.069,2.007C302.379,482.858,301.5,482.002,301.5,480.851z M305.226,480.851
			c0-0.942-0.705-1.635-1.652-1.635c-0.953,0-1.663,0.693-1.663,1.635c0,0.941,0.71,1.635,1.663,1.635
			C304.522,482.486,305.226,481.793,305.226,480.851z"/>
		<path style="fill:#FFFFFF;" d="M313.351,482.825l-0.902-1.269c-0.102,0.011-0.203,0.017-0.316,0.017h-1.06v1.252h-0.417v-3.947
			h1.477c1.004,0,1.613,0.507,1.613,1.353c0,0.62-0.327,1.054-0.902,1.24l0.964,1.353H313.351z M313.328,480.231
			c0-0.632-0.417-0.992-1.207-0.992h-1.048v1.979h1.048C312.911,481.218,313.328,480.851,313.328,480.231z"/>
		<path style="fill:#FFFFFF;" d="M322.907,478.878v3.947h-0.4v-3.158l-1.551,2.656h-0.197l-1.551-2.639v3.14h-0.4v-3.947h0.344
			l1.714,2.926l1.697-2.926H322.907z"/>
		<path style="fill:#FFFFFF;" d="M330.744,481.77h-2.199l-0.473,1.054h-0.434l1.804-3.947h0.411l1.804,3.947h-0.44L330.744,481.77z
			 M330.592,481.432l-0.947-2.12l-0.947,2.12H330.592z"/>
		<path style="fill:#FFFFFF;" d="M336.957,479.239h-1.387v-0.361h3.192v0.361h-1.387v3.586h-0.417V479.239z"/>
		<path style="fill:#FFFFFF;" d="M343.063,482.346l0.164-0.321c0.282,0.276,0.784,0.479,1.302,0.479c0.739,0,1.06-0.31,1.06-0.699
			c0-1.083-2.43-0.417-2.43-1.877c0-0.581,0.451-1.083,1.455-1.083c0.446,0,0.908,0.13,1.224,0.35l-0.141,0.333
			c-0.338-0.22-0.733-0.327-1.083-0.327c-0.722,0-1.043,0.321-1.043,0.716c0,1.083,2.43,0.429,2.43,1.866
			c0,0.581-0.462,1.077-1.472,1.077C343.937,482.858,343.356,482.65,343.063,482.346z"/>
	</g>
</g>
<g>
</g>
<g>
	<path style="fill:#242B57;" d="M35.401,334.571c0-2.034,0.335-3.868,1.017-5.518c0.68-1.648,1.629-3.053,2.844-4.206
		c1.223-1.157,2.663-2.044,4.334-2.67c1.668-0.616,3.496-0.93,5.476-0.93c1.984,0,3.808,0.314,5.481,0.93
		c1.667,0.626,3.115,1.514,4.334,2.67c1.214,1.153,2.162,2.559,2.845,4.206c0.678,1.649,1.02,3.484,1.02,5.518
		c0,2.03-0.342,3.861-1.02,5.511c-0.682,1.644-1.63,3.048-2.845,4.206c-1.219,1.157-2.667,2.047-4.334,2.667
		c-1.672,0.623-3.497,0.928-5.481,0.928c-1.981,0-3.808-0.305-5.476-0.928c-1.672-0.62-3.111-1.51-4.334-2.667
		c-1.215-1.158-2.163-2.562-2.844-4.206C35.736,338.432,35.401,336.601,35.401,334.571 M41.197,334.571
		c0,1.189,0.185,2.283,0.555,3.273c0.369,0.995,0.903,1.852,1.592,2.579c0.693,0.726,1.523,1.296,2.49,1.702
		c0.967,0.402,2.046,0.608,3.238,0.608c1.196,0,2.274-0.206,3.241-0.608c0.967-0.407,1.798-0.976,2.486-1.702
		c0.694-0.728,1.228-1.584,1.596-2.579c0.37-0.99,0.556-2.084,0.556-3.273c0-1.169-0.186-2.262-0.556-3.259
		c-0.368-1.004-0.902-1.867-1.596-2.596c-0.687-0.733-1.519-1.294-2.486-1.703c-0.967-0.402-2.045-0.611-3.241-0.611
		c-1.192,0-2.271,0.209-3.238,0.611c-0.967,0.408-1.797,0.97-2.49,1.703c-0.689,0.729-1.223,1.593-1.592,2.596
		C41.383,332.309,41.197,333.402,41.197,334.571"/>
	<path style="fill:#242B57;" d="M65.866,329.838h5.156v2.365h0.069c0.168-0.335,0.408-0.669,0.72-1.004
		c0.308-0.329,0.677-0.631,1.109-0.891c0.43-0.261,0.916-0.477,1.465-0.649c0.553-0.163,1.148-0.249,1.791-0.249
		c1.359,0,2.46,0.213,3.293,0.63c0.838,0.417,1.49,0.997,1.955,1.735c0.465,0.741,0.781,1.61,0.948,2.615
		c0.167,1.004,0.247,2.09,0.247,3.254v9.599h-5.371v-8.523c0-0.499-0.018-1.023-0.048-1.556c-0.039-0.534-0.145-1.033-0.323-1.486
		c-0.181-0.455-0.457-0.826-0.825-1.107c-0.372-0.292-0.902-0.434-1.595-0.434s-1.254,0.127-1.683,0.378
		c-0.43,0.249-0.759,0.583-0.982,1c-0.229,0.421-0.378,0.891-0.451,1.412c-0.069,0.529-0.106,1.078-0.106,1.651v8.665h-5.37V329.838
		z"/>
	<rect x="86.486" y="320.176" style="fill:#242B57;" width="5.37" height="27.064"/>
	<path style="fill:#242B57;" d="M95.363,324.363c0-0.855,0.305-1.591,0.919-2.2c0.605-0.609,1.34-0.916,2.2-0.916
		c0.857,0,1.591,0.307,2.202,0.916c0.606,0.609,0.911,1.346,0.911,2.2c0,0.86-0.306,1.593-0.911,2.202
		c-0.611,0.611-1.345,0.915-2.202,0.915c-0.86,0-1.595-0.304-2.2-0.915C95.669,325.956,95.363,325.223,95.363,324.363
		 M95.799,329.838h5.367v17.399h-5.367V329.838z"/>
	<path style="fill:#242B57;" d="M105.031,329.838h5.156v2.365h0.073c0.167-0.335,0.403-0.669,0.72-1.004
		c0.308-0.329,0.673-0.631,1.108-0.891c0.429-0.261,0.916-0.477,1.466-0.649c0.548-0.163,1.146-0.249,1.791-0.249
		c1.359,0,2.46,0.213,3.293,0.63c0.835,0.417,1.485,0.997,1.951,1.735c0.468,0.741,0.784,1.61,0.948,2.615
		c0.167,1.004,0.251,2.09,0.251,3.254v9.599h-5.371v-8.523c0-0.499-0.018-1.023-0.052-1.556c-0.035-0.534-0.145-1.033-0.32-1.486
		c-0.179-0.455-0.457-0.826-0.826-1.107c-0.371-0.292-0.903-0.434-1.592-0.434c-0.694,0-1.254,0.127-1.687,0.378
		c-0.428,0.249-0.755,0.583-0.981,1c-0.227,0.421-0.376,0.891-0.451,1.412c-0.069,0.529-0.104,1.078-0.104,1.651v8.665h-5.373
		V329.838z"/>
	<path style="fill:#242B57;" d="M142.054,344.236c-0.857,1.097-1.942,1.944-3.257,2.543c-1.312,0.595-2.673,0.887-4.081,0.887
		c-1.336,0-2.598-0.208-3.778-0.638c-1.182-0.431-2.21-1.045-3.078-1.845c-0.876-0.8-1.557-1.759-2.06-2.883
		c-0.503-1.126-0.75-2.377-0.75-3.758c0-1.385,0.247-2.634,0.75-3.757c0.504-1.122,1.184-2.084,2.06-2.887
		c0.868-0.796,1.896-1.412,3.078-1.845c1.181-0.427,2.442-0.64,3.778-0.64c1.241,0,2.369,0.213,3.381,0.64
		c1.017,0.432,1.874,1.049,2.579,1.845c0.705,0.803,1.245,1.764,1.629,2.887c0.381,1.122,0.573,2.372,0.573,3.757v1.68H130.42
		c0.212,1.03,0.677,1.845,1.393,2.454c0.716,0.609,1.6,0.911,2.652,0.911c0.884,0,1.629-0.196,2.24-0.59
		c0.604-0.395,1.138-0.901,1.591-1.517L142.054,344.236z M137.507,336.57c0.022-0.903-0.275-1.682-0.895-2.324
		c-0.621-0.644-1.417-0.968-2.4-0.968c-0.594,0-1.119,0.093-1.571,0.287c-0.454,0.194-0.843,0.439-1.166,0.736
		c-0.324,0.299-0.571,0.64-0.752,1.038c-0.179,0.39-0.28,0.801-0.303,1.231H137.507z"/>
	<path style="fill:#242B57;" d="M157.411,321.895h9.456c1.097,0,2.199,0.074,3.309,0.23c1.111,0.156,2.106,0.465,2.99,0.93
		c0.882,0.469,1.599,1.119,2.147,1.956c0.549,0.832,0.824,1.941,0.824,3.324c0,1.436-0.395,2.622-1.197,3.563
		c-0.799,0.944-1.858,1.618-3.167,2.023v0.076c0.83,0.118,1.592,0.348,2.269,0.699c0.682,0.341,1.264,0.788,1.756,1.323
		c0.487,0.535,0.866,1.162,1.128,1.874c0.268,0.722,0.395,1.484,0.395,2.295c0,1.335-0.283,2.452-0.858,3.348
		c-0.573,0.896-1.316,1.617-2.22,2.168c-0.908,0.548-1.928,0.937-3.063,1.179c-1.131,0.235-2.259,0.36-3.383,0.36h-10.384V321.895z
		 M162.997,332.024h4.044c0.433,0,0.854-0.043,1.272-0.139c0.419-0.096,0.793-0.254,1.128-0.47c0.335-0.216,0.607-0.498,0.807-0.855
		c0.203-0.36,0.305-0.788,0.305-1.294c0-0.522-0.113-0.956-0.338-1.306c-0.229-0.345-0.523-0.613-0.88-0.803
		c-0.36-0.191-0.762-0.328-1.216-0.412c-0.452-0.082-0.899-0.127-1.325-0.127h-3.797V332.024z M162.997,342.513h5.011
		c0.436,0,0.869-0.046,1.308-0.142c0.441-0.093,0.844-0.259,1.203-0.498c0.354-0.237,0.65-0.549,0.876-0.937
		c0.229-0.379,0.338-0.841,0.338-1.39c0-0.599-0.148-1.083-0.446-1.452c-0.296-0.371-0.677-0.654-1.128-0.841
		c-0.45-0.192-0.944-0.326-1.468-0.393c-0.526-0.074-1.014-0.113-1.472-0.113h-4.223V342.513z"/>
	<path style="fill:#242B57;" d="M190.855,345.057h-0.071c-0.601,0.934-1.395,1.599-2.385,2.008c-0.991,0.407-2.034,0.602-3.13,0.602
		c-0.812,0-1.593-0.11-2.345-0.335c-0.755-0.225-1.414-0.572-1.989-1.023c-0.571-0.453-1.024-1.014-1.361-1.684
		c-0.335-0.666-0.498-1.443-0.498-2.329c0-0.995,0.182-1.843,0.553-2.537c0.369-0.695,0.871-1.265,1.504-1.718
		c0.631-0.455,1.352-0.812,2.161-1.061c0.817-0.249,1.658-0.434,2.525-0.553c0.874-0.12,1.745-0.187,2.618-0.216
		c0.867-0.022,1.674-0.033,2.418-0.033c0-0.958-0.344-1.716-1.025-2.272c-0.682-0.563-1.485-0.841-2.416-0.841
		c-0.882,0-1.686,0.185-2.412,0.549c-0.731,0.372-1.385,0.879-1.954,1.524l-2.865-2.938c1.002-0.928,2.172-1.627,3.507-2.095
		c1.338-0.461,2.724-0.693,4.157-0.693c1.575,0,2.867,0.196,3.884,0.589c1.012,0.395,1.829,0.971,2.433,1.737
		c0.61,0.762,1.031,1.699,1.272,2.808c0.237,1.109,0.359,2.396,0.359,3.853v8.843h-4.939V345.057z M189.525,339.613
		c-0.402,0-0.909,0.022-1.52,0.055c-0.609,0.034-1.195,0.139-1.75,0.305c-0.564,0.168-1.044,0.421-1.432,0.755
		c-0.396,0.335-0.596,0.795-0.596,1.397c0,0.64,0.276,1.117,0.824,1.428c0.552,0.314,1.125,0.47,1.718,0.47
		c0.525,0,1.035-0.076,1.522-0.22c0.493-0.144,0.926-0.347,1.31-0.611c0.378-0.256,0.68-0.59,0.91-1
		c0.226-0.402,0.344-0.884,0.344-1.431v-1.148H189.525z"/>
	<path style="fill:#242B57;" d="M199.158,329.838h5.156v2.365h0.073c0.163-0.335,0.403-0.669,0.716-1.004
		c0.311-0.329,0.677-0.631,1.111-0.891c0.427-0.261,0.917-0.477,1.461-0.649c0.553-0.163,1.148-0.249,1.795-0.249
		c1.359,0,2.46,0.213,3.29,0.63c0.838,0.417,1.49,0.997,1.954,1.735c0.466,0.741,0.78,1.61,0.948,2.615
		c0.167,1.004,0.25,2.09,0.25,3.254v9.599h-5.368v-8.523c0-0.499-0.021-1.023-0.053-1.556c-0.04-0.534-0.146-1.033-0.324-1.486
		c-0.18-0.455-0.457-0.826-0.825-1.107c-0.371-0.292-0.903-0.434-1.592-0.434c-0.697,0-1.254,0.127-1.686,0.378
		c-0.426,0.249-0.759,0.583-0.981,1c-0.229,0.421-0.378,0.891-0.451,1.412c-0.07,0.529-0.106,1.078-0.106,1.651v8.665h-5.371
		V329.838z"/>
	<polygon style="fill:#242B57;" points="219.711,320.176 225.08,320.176 225.08,336.714 231.025,329.838 237.609,329.838 
		230.7,337.682 237.788,347.243 231.025,347.243 225.152,338.429 225.08,338.429 225.08,347.243 219.711,347.243 	"/>
	<path style="fill:#242B57;" d="M239.259,324.363c0-0.855,0.306-1.591,0.914-2.2c0.606-0.609,1.34-0.916,2.201-0.916
		c0.861,0,1.592,0.307,2.202,0.916c0.604,0.609,0.91,1.346,0.91,2.2c0,0.86-0.305,1.593-0.91,2.202
		c-0.61,0.611-1.341,0.915-2.202,0.915c-0.861,0-1.595-0.304-2.201-0.915C239.566,325.956,239.259,325.223,239.259,324.363
		 M239.689,329.838h5.371v17.399h-5.371V329.838z"/>
	<path style="fill:#242B57;" d="M248.924,329.838h5.156v2.365h0.072c0.168-0.335,0.405-0.669,0.721-1.004
		c0.304-0.329,0.673-0.631,1.109-0.891c0.429-0.261,0.916-0.477,1.464-0.649c0.549-0.163,1.148-0.249,1.792-0.249
		c1.359,0,2.459,0.213,3.29,0.63c0.837,0.417,1.488,0.997,1.956,1.735c0.463,0.741,0.777,1.61,0.946,2.615
		c0.167,1.004,0.251,2.09,0.251,3.254v9.599h-5.37v-8.523c0-0.499-0.019-1.023-0.051-1.556c-0.036-0.534-0.146-1.033-0.321-1.486
		c-0.184-0.455-0.462-0.826-0.827-1.107c-0.367-0.292-0.903-0.434-1.593-0.434c-0.695,0-1.253,0.127-1.685,0.378
		c-0.431,0.249-0.753,0.583-0.98,1c-0.227,0.421-0.379,0.891-0.453,1.412c-0.069,0.529-0.105,1.078-0.105,1.651v8.665h-5.371
		V329.838z"/>
	<path style="fill:#242B57;" d="M287.735,345.772c0,3.293-0.827,5.797-2.492,7.503c-1.654,1.704-4.179,2.561-7.566,2.561
		c-1.555,0-3.082-0.18-4.586-0.522c-1.505-0.343-2.888-1.019-4.151-2.02l2.967-4.442c0.836,0.69,1.716,1.239,2.636,1.646
		c0.916,0.405,1.924,0.609,3.027,0.609c1.641,0,2.856-0.398,3.633-1.201c0.772-0.794,1.165-1.819,1.165-3.06v-1.677h-0.076
		c-0.623,0.832-1.388,1.421-2.31,1.77c-0.922,0.347-1.783,0.516-2.597,0.516c-1.287,0-2.461-0.22-3.506-0.662
		c-1.05-0.441-1.955-1.061-2.703-1.862c-0.752-0.798-1.335-1.745-1.738-2.845c-0.403-1.097-0.606-2.301-0.606-3.619
		c0-1.147,0.182-2.265,0.551-3.366c0.372-1.097,0.899-2.061,1.577-2.899c0.678-0.832,1.509-1.51,2.488-2.022
		c0.982-0.51,2.09-0.767,3.331-0.767c0.762,0,1.464,0.082,2.095,0.249c0.633,0.168,1.194,0.385,1.697,0.645
		c0.503,0.259,0.934,0.556,1.292,0.877c0.353,0.319,0.642,0.64,0.856,0.952h0.072v-2.296h4.941V345.772z M274.204,338.432
		c0,0.57,0.105,1.117,0.321,1.634c0.215,0.506,0.518,0.966,0.91,1.358c0.396,0.398,0.85,0.711,1.363,0.947
		c0.51,0.238,1.079,0.359,1.701,0.359c0.594,0,1.157-0.12,1.68-0.359c0.525-0.237,0.983-0.549,1.38-0.947
		c0.393-0.391,0.698-0.851,0.916-1.358c0.215-0.517,0.319-1.064,0.319-1.634c0-0.568-0.105-1.116-0.319-1.629
		c-0.218-0.508-0.523-0.966-0.916-1.356c-0.396-0.4-0.855-0.711-1.38-0.953c-0.523-0.238-1.086-0.359-1.68-0.359
		c-0.621,0-1.191,0.12-1.701,0.359c-0.513,0.242-0.966,0.553-1.363,0.953c-0.391,0.39-0.695,0.848-0.91,1.356
		C274.309,337.317,274.204,337.864,274.204,338.432"/>
	<path style="fill:#242B57;" d="M303.307,321.895h9.418c1.313,0,2.554,0.118,3.719,0.357c1.176,0.239,2.193,0.654,3.067,1.234
		c0.875,0.582,1.56,1.37,2.077,2.361c0.513,0.994,0.769,2.24,0.769,3.745c0,1.481-0.239,2.717-0.717,3.724
		c-0.475,1.001-1.134,1.804-1.968,2.398c-0.839,0.595-1.821,1.019-2.971,1.268c-1.146,0.249-2.387,0.377-3.724,0.377h-4.083v9.883
		h-5.586V321.895z M308.893,332.637h3.724c0.499,0,0.983-0.053,1.448-0.149c0.465-0.089,0.882-0.254,1.255-0.484
		c0.367-0.225,0.669-0.528,0.896-0.927c0.228-0.391,0.338-0.889,0.338-1.484c0-0.645-0.146-1.162-0.443-1.56
		c-0.302-0.395-0.683-0.692-1.148-0.913c-0.463-0.213-0.985-0.352-1.555-0.412c-0.578-0.057-1.124-0.089-1.651-0.089h-2.864V332.637
		z"/>
	<path style="fill:#242B57;" d="M336.103,345.057h-0.07c-0.596,0.934-1.392,1.599-2.38,2.008c-0.994,0.407-2.039,0.602-3.135,0.602
		c-0.81,0-1.593-0.11-2.344-0.335c-0.752-0.225-1.411-0.572-1.984-1.023c-0.577-0.453-1.026-1.014-1.361-1.684
		c-0.335-0.666-0.503-1.443-0.503-2.329c0-0.995,0.185-1.843,0.553-2.537c0.374-0.695,0.872-1.265,1.503-1.718
		c0.633-0.455,1.354-0.812,2.166-1.061c0.815-0.249,1.654-0.434,2.521-0.553c0.877-0.12,1.749-0.187,2.617-0.216
		c0.87-0.022,1.675-0.033,2.418-0.033c0-0.958-0.338-1.716-1.018-2.272c-0.685-0.563-1.49-0.841-2.418-0.841
		c-0.887,0-1.689,0.185-2.418,0.549c-0.729,0.372-1.376,0.879-1.953,1.524l-2.863-2.938c1.007-0.928,2.168-1.627,3.511-2.095
		c1.333-0.461,2.717-0.693,4.153-0.693c1.574,0,2.871,0.196,3.882,0.589c1.016,0.395,1.831,0.971,2.437,1.737
		c0.606,0.762,1.03,1.699,1.268,2.808c0.237,1.109,0.366,2.396,0.366,3.853v8.843h-4.948V345.057z M334.778,339.613
		c-0.402,0-0.915,0.022-1.517,0.055c-0.616,0.034-1.196,0.139-1.756,0.305c-0.565,0.168-1.04,0.421-1.435,0.755
		c-0.395,0.335-0.595,0.795-0.595,1.397c0,0.64,0.283,1.117,0.827,1.428c0.549,0.314,1.122,0.47,1.716,0.47
		c0.529,0,1.037-0.076,1.526-0.22c0.487-0.144,0.922-0.347,1.309-0.611c0.378-0.256,0.683-0.59,0.911-1
		c0.225-0.402,0.338-0.884,0.338-1.431v-1.148H334.778z"/>
	<path style="fill:#242B57;" d="M354.436,350.071c-0.36,0.928-0.704,1.751-1.04,2.468c-0.335,0.716-0.758,1.321-1.272,1.809
		c-0.513,0.487-1.164,0.861-1.951,1.112c-0.784,0.249-1.826,0.376-3.113,0.376c-1.383,0-2.722-0.216-4.009-0.647l0.714-4.405
		c0.815,0.362,1.648,0.541,2.507,0.541c0.595,0,1.086-0.063,1.464-0.197c0.384-0.13,0.704-0.319,0.952-0.572
		c0.252-0.254,0.462-0.56,0.626-0.916c0.163-0.355,0.345-0.772,0.537-1.249l0.391-1.004l-7.625-17.548h5.802l4.474,11.497h0.07
		l3.832-11.497h5.511L354.436,350.071z"/>
	<path style="fill:#242B57;" d="M364.316,329.838h5.155v2.365h0.075c0.165-0.335,0.4-0.669,0.712-1.004
		c0.314-0.329,0.678-0.631,1.109-0.891c0.431-0.261,0.923-0.477,1.465-0.649c0.554-0.163,1.153-0.249,1.797-0.249
		c1.215,0,2.295,0.249,3.238,0.755c0.946,0.499,1.651,1.289,2.132,2.358c0.613-1.115,1.373-1.919,2.255-2.394
		c0.88-0.477,1.974-0.719,3.252-0.719c1.176,0,2.157,0.199,2.96,0.592c0.796,0.395,1.433,0.928,1.898,1.61
		c0.465,0.681,0.796,1.481,1.004,2.399c0.199,0.923,0.305,1.905,0.305,2.954v10.278h-5.378v-10.129c0-0.812-0.17-1.514-0.513-2.099
		c-0.35-0.587-0.964-0.879-1.845-0.879c-0.625,0-1.138,0.107-1.558,0.305c-0.421,0.206-0.752,0.484-1.008,0.841
		c-0.247,0.357-0.426,0.777-0.532,1.253c-0.11,0.48-0.163,0.98-0.163,1.507v9.2h-5.368v-9.2c0-0.312-0.014-0.695-0.036-1.146
		c-0.024-0.453-0.105-0.884-0.245-1.289c-0.149-0.407-0.381-0.755-0.704-1.036c-0.324-0.292-0.796-0.434-1.412-0.434
		c-0.697,0-1.253,0.127-1.687,0.378c-0.431,0.249-0.758,0.583-0.98,1c-0.232,0.421-0.381,0.891-0.455,1.412
		c-0.065,0.529-0.105,1.078-0.105,1.651v8.665h-5.37V329.838z"/>
	<path style="fill:#242B57;" d="M411.936,344.236c-0.86,1.097-1.941,1.944-3.259,2.543c-1.313,0.595-2.674,0.887-4.083,0.887
		c-1.337,0-2.597-0.208-3.779-0.638c-1.179-0.431-2.209-1.045-3.075-1.845c-0.875-0.8-1.558-1.759-2.061-2.883
		c-0.498-1.126-0.748-2.377-0.748-3.758c0-1.385,0.25-2.634,0.748-3.757c0.503-1.122,1.186-2.084,2.061-2.887
		c0.867-0.796,1.896-1.412,3.075-1.845c1.182-0.427,2.442-0.64,3.779-0.64c1.242,0,2.368,0.213,3.384,0.64
		c1.016,0.432,1.874,1.049,2.576,1.845c0.705,0.803,1.248,1.764,1.63,2.887c0.383,1.122,0.568,2.372,0.568,3.757v1.68h-12.454
		c0.213,1.03,0.68,1.845,1.399,2.454c0.709,0.609,1.596,0.911,2.643,0.911c0.887,0,1.634-0.196,2.24-0.59
		c0.609-0.395,1.143-0.901,1.596-1.517L411.936,344.236z M407.388,336.57c0.026-0.903-0.276-1.682-0.897-2.324
		c-0.616-0.644-1.412-0.968-2.396-0.968c-0.596,0-1.122,0.093-1.575,0.287c-0.455,0.194-0.841,0.439-1.164,0.736
		c-0.321,0.299-0.57,0.64-0.752,1.038c-0.179,0.39-0.278,0.801-0.306,1.231H407.388z"/>
	<path style="fill:#242B57;" d="M416.016,329.838h5.159v2.365h0.065c0.168-0.335,0.41-0.669,0.722-1.004
		c0.304-0.329,0.678-0.631,1.109-0.891c0.427-0.261,0.915-0.477,1.465-0.649c0.551-0.163,1.145-0.249,1.793-0.249
		c1.352,0,2.461,0.213,3.287,0.63c0.841,0.417,1.488,0.997,1.956,1.735c0.465,0.741,0.781,1.61,0.947,2.615
		c0.168,1.004,0.249,2.09,0.249,3.254v9.599h-5.368v-8.523c0-0.499-0.024-1.023-0.053-1.556c-0.038-0.534-0.142-1.033-0.319-1.486
		c-0.182-0.455-0.462-0.826-0.827-1.107c-0.371-0.292-0.897-0.434-1.594-0.434c-0.695,0-1.255,0.127-1.685,0.378
		c-0.427,0.249-0.758,0.583-0.98,1c-0.228,0.421-0.378,0.891-0.448,1.412c-0.072,0.529-0.108,1.078-0.108,1.651v8.665h-5.37V329.838
		z"/>
	<path style="fill:#242B57;" d="M448.417,334.137h-4.728v5.802c0,0.477,0.031,0.915,0.074,1.306
		c0.046,0.391,0.149,0.733,0.321,1.023c0.163,0.283,0.424,0.506,0.774,0.662c0.341,0.156,0.803,0.23,1.376,0.23
		c0.285,0,0.661-0.031,1.129-0.089c0.462-0.06,0.819-0.197,1.054-0.412v4.478c-0.597,0.213-1.217,0.36-1.86,0.427
		c-0.647,0.07-1.28,0.103-1.9,0.103c-0.908,0-1.742-0.093-2.507-0.281c-0.765-0.194-1.428-0.491-2.001-0.911
		c-0.573-0.42-1.019-0.963-1.339-1.632c-0.328-0.662-0.491-1.481-0.491-2.434v-8.272h-3.437v-4.296h3.437v-5.157h5.37v5.157h4.728
		V334.137z"/>
	<path style="fill:#242B57;" d="M460.983,334.959c-0.788-0.977-1.823-1.464-3.108-1.464c-0.463,0-0.901,0.108-1.328,0.321
		c-0.427,0.218-0.649,0.59-0.649,1.11c0,0.432,0.221,0.745,0.663,0.949c0.444,0.199,1.007,0.383,1.685,0.537
		c0.68,0.158,1.406,0.321,2.179,0.499c0.783,0.18,1.507,0.462,2.187,0.841c0.676,0.383,1.242,0.899,1.685,1.562
		c0.436,0.656,0.663,1.533,0.663,2.626c0,1.124-0.251,2.051-0.733,2.775c-0.491,0.729-1.116,1.316-1.883,1.756
		c-0.765,0.444-1.62,0.75-2.574,0.937c-0.959,0.17-1.895,0.259-2.832,0.259c-1.218,0-2.444-0.17-3.686-0.516
		c-1.239-0.341-2.291-0.959-3.149-1.842l3.256-3.614c0.499,0.618,1.057,1.093,1.667,1.414c0.606,0.319,1.318,0.484,2.128,0.484
		c0.618,0,1.183-0.089,1.687-0.271c0.499-0.184,0.748-0.503,0.748-0.987c0-0.45-0.218-0.788-0.662-1.019
		c-0.441-0.23-1.007-0.415-1.684-0.573c-0.681-0.156-1.406-0.319-2.188-0.498c-0.772-0.179-1.5-0.446-2.18-0.805
		c-0.683-0.359-1.241-0.868-1.684-1.524c-0.443-0.654-0.661-1.536-0.661-2.633c0-1.026,0.211-1.912,0.628-2.646
		c0.415-0.741,0.968-1.351,1.651-1.828c0.678-0.475,1.45-0.829,2.341-1.061c0.884-0.221,1.78-0.338,2.684-0.338
		c1.148,0,2.301,0.168,3.474,0.503s2.152,0.928,2.971,1.792L460.983,334.959z"/>
	<polygon style="fill:#242B57;" points="192.366,162.279 262.242,162.279 262.242,183.458 215.312,183.458 215.312,204.638 
		258.709,204.638 258.709,225.826 215.312,225.826 215.312,266.425 192.366,266.425 	"/>
	<path style="fill:#242B57;" d="M278.714,162.279h38.684c5.394,0,10.496,0.489,15.298,1.465c4.807,0.986,9,2.677,12.581,5.079
		c3.582,2.403,6.418,5.639,8.528,9.708c2.109,4.068,3.161,9.194,3.161,15.375c0,6.08-0.975,11.18-2.938,15.297
		c-1.962,4.117-4.663,7.405-8.092,9.859c-3.429,2.447-7.507,4.188-12.206,5.221c-4.709,1.026-9.808,1.543-15.301,1.543H301.66
		v40.599h-22.945V162.279z M301.66,206.408h15.305c2.054,0,4.038-0.193,5.952-0.588c1.915-0.393,3.628-1.055,5.154-1.985
		c1.514-0.929,2.737-2.209,3.674-3.824c0.93-1.622,1.399-3.652,1.399-6.106c0-2.652-0.618-4.783-1.845-6.396
		c-1.224-1.624-2.791-2.873-4.704-3.758c-1.912-0.879-4.042-1.442-6.4-1.691c-2.351-0.242-4.611-0.366-6.763-0.366H301.66V206.408z"
		/>
	<polygon style="fill:#242B57;" points="397.275,211.995 362.852,162.279 391.682,162.279 413.893,198.754 435.225,162.279 
		463.029,162.279 429.342,211.557 467,266.428 438.165,266.428 412.724,224.499 388.008,266.428 360.794,266.428 	"/>
	<path style="fill:#0286C8;" d="M91.866,246.884l-14.525-19.663c-2.156-2.923-5.88-6.777-5.88-10.638
		c0-3.851,3.704-7.705,5.88-10.639l14.525-19.681c0.694-0.947,1.355-1.61,2.003-2.147v-22.648c0-18.193-7.613-22.783-16.912-10.19
		l-31.321,42.401C40.981,199.983,33,208.277,33,216.583c0,8.294,8.002,16.593,12.635,22.937l31.321,42.35
		c9.299,12.604,16.912,8.056,16.912-10.175v-22.654C93.221,248.516,92.56,247.847,91.866,246.884"/>
	<path style="fill:#242B57;" d="M153.399,193.675l-31.332-42.397c-9.296-12.6-16.905-8.009-16.905,10.19v22.648
		c0.629,0.521,1.298,1.2,1.985,2.147l14.548,19.681c2.166,2.935,5.875,6.788,5.875,10.639c0,3.854-3.709,7.714-5.875,10.641
		l-14.548,19.66c-0.687,0.973-1.356,1.632-1.985,2.168v22.643c0,18.238,7.61,22.768,16.905,10.175l31.332-42.355
		c4.652-6.344,12.632-14.653,12.632-22.943C166.031,208.277,158.05,199.983,153.399,193.675"/>
</g>
</svg>
